{
    "asset": {
        "generator": "FBX2glTF",
        "version": "2.0"
    },
    "scene": 0,
    "buffers": [
        {
            "byteLength": 8424,
            "uri": "buffer.bin"
        }
    ],
    "bufferViews": [
        {
            "buffer": 0,
            "byteLength": 1320,
            "byteOffset": 0,
            "target": 34963
        },
        {
            "buffer": 0,
            "byteLength": 2664,
            "byteOffset": 1320,
            "target": 34962
        },
        {
            "buffer": 0,
            "byteLength": 2664,
            "byteOffset": 3984,
            "target": 34962
        },
        {
            "buffer": 0,
            "byteLength": 1776,
            "byteOffset": 6648,
            "target": 34962
        }
    ],
    "scenes": [
        {
            "name": "Root Scene",
            "nodes": [
                0
            ]
        }
    ],
    "accessors": [
        {
            "componentType": 5123,
            "type": "SCALAR",
            "count": 660,
            "bufferView": 0,
            "byteOffset": 0
        },
        {
            "componentType": 5126,
            "type": "VEC3",
            "count": 222,
            "bufferView": 1,
            "byteOffset": 0,
            "min": [
                -3.31935572624207,
                -14.2122859954834,
                -58.1149253845215
            ],
            "max": [
                1.31935572624207,
                5.59398698806763,
                54.2076797485352
            ]
        },
        {
            "componentType": 5126,
            "type": "VEC3",
            "count": 222,
            "bufferView": 2,
            "byteOffset": 0
        },
        {
            "componentType": 5126,
            "type": "VEC2",
            "count": 222,
            "bufferView": 3,
            "byteOffset": 0
        }
    ],
    "samplers": [
        {}
    ],
    "materials": [
        {
            "name": "lambert1",
            "alphaMode": "OPAQUE",
            "pbrMetallicRoughness": {
                "baseColorFactor": [
                    0.400000005960464,
                    0.400000005960464,
                    0.400000005960464,
                    1.0
                ],
                "metallicFactor": 0.200000002980232,
                "roughnessFactor": 0.800000011920929
            }
        }
    ],
    "meshes": [
        {
            "name": "pCylinder11",
            "primitives": [
                {
                    "material": 0,
                    "mode": 4,
                    "attributes": {
                        "NORMAL": 2,
                        "POSITION": 1,
                        "TEXCOORD_0": 3
                    },
                    "indices": 0
                }
            ]
        }
    ],
    "nodes": [
        {
            "name": "RootNode",
            "translation": [
                0.0,
                0.0,
                0.0
            ],
            "rotation": [
                0.0,
                0.0,
                0.0,
                1.0
            ],
            "scale": [
                1.0,
                1.0,
                1.0
            ],
            "children": [
                1
            ]
        },
        {
            "name": "pCylinder11",
            "translation": [
                0.0,
                2.22044604925031e-16,
                0.0
            ],
            "rotation": [
                -0.70710676908493,
                -0.0,
                0.0,
                0.70710676908493
            ],
            "scale": [
                0.00999999977648258,
                0.00999999977648258,
                0.00999999977648258
            ],
            "mesh": 0
        }
    ]
}